<svg xmlns="http://www.w3.org/2000/svg" xmlns:xlink="http://www.w3.org/1999/xlink" id="status-shield-danger" x="0" y="0" class="icon status-shield danger" enable-background="new 0 0 162.5 200" version="1.1" viewBox="0 0 162.5 200" xml:space="preserve" style="width:162.5px;height:200px"><path fill="#F3F3F3" d="M162.6,31.3c0.1,0-79.3-30.5-81.3-31.3C79.8,0.6-0.2,31.3-0.1,31.3v57.5c0,39.8,11.4,91.9,81.3,111.2 c69.7-19.4,81.1-72.4,81.1-111.2C162.6,69.1,162.6,31.3,162.6,31.3z"/><path fill="#E7E7E7" d="M0,88.8c0,39.8,11.4,91.9,81.3,111.2V0c-3,1.1-81.3,31.3-81.3,31.3S-0.1,88.8,0,88.8z"/><path fill="#DD6B6B" d="M146.8,42c0.2,0-63.9-25.8-65.6-26.4c-1.4,0.5-65.8,25.3-65.6,25.2V89c0,33.4,6.5,79.1,65.6,95.3 c58.9-16.3,65.6-62.6,65.6-95.3C146.9,72.5,146.9,42,146.8,42z" class="lighter-side"/><path fill="#DD6B6B" d="M81.3,15.6c-1.4,0.5-65.8,25.3-65.6,25.2v48.3c0,33.4,6.5,79.1,65.6,95.3V15.6z" class="darker-side"/><path fill="#FFF" d="M96.9,99.9l15.7-15.7c2.2-2.2,2.2-5.7,0-7.8l-7.8-7.9c-2.2-2.2-5.7-2.2-7.8,0L81.3,84.2L65.6,68.6 c-2.2-2.2-5.7-2.2-7.9,0l-7.9,7.8c-2.2,2.2-2.2,5.7,0,7.9L65.4,100l-15.6,15.6c-2.2,2.2-2.2,5.7,0,7.8l7.8,7.9 c2.2,2.2,5.7,2.2,7.8,0l15.6-15.6l15.8,15.8c2.2,2.2,5.7,2.2,7.9,0l7.8-7.8c2.2-2.2,2.2-5.7,0-7.9L96.9,99.9z"/></svg>