<svg xmlns="http://www.w3.org/2000/svg" xmlns:xlink="http://www.w3.org/1999/xlink" id="status-shield-good" x="0" y="0" class="icon status-shield good" enable-background="new 0 0 162.5 200" version="1.1" viewBox="0 0 162.5 200" xml:space="preserve" style="width:162.5px;height:200px"><path fill="#F3F3F3" d="M162.5,31.2c0.2,0-79.2-30.5-81.3-31.2C79.7,0.6-0.2,31.2,0,31.2v57.5c0,39.8,11.4,91.9,81.3,111.2 c69.7-19.4,81.1-72.3,81.1-111.2C162.5,69.1,162.5,31.2,162.5,31.2z"/><path fill="#E7E7E7" d="M0,88.7c0,39.8,11.4,91.9,81.3,111.2V0C78.3,1.1,0,31.2,0,31.2S0,88.7,0,88.7z"/><path fill="#3DB39E" d="M146.7,42c0.2,0-63.9-25.8-65.6-26.4c-1.4,0.5-65.8,25.3-65.6,25.2v48.3c0,33.4,6.6,79.1,65.6,95.3 c58.9-16.3,65.6-62.7,65.6-95.3C146.9,72.5,146.9,42,146.7,42z" class="lighter-side"/><path fill="#3AAA96" d="M81.3,15.6c-1.4,0.5-65.8,25.3-65.6,25.2v48.3c0,33.4,6.6,79.1,65.6,95.3V15.6z" class="darker-side"/><path fill="#FFF" d="M112.2,65.6c-3.4-2.1-7.8-0.8-9.8,2.7L75.3,117L60.2,98.6c-2.7-3.1-6.4-4.8-9.8-2.7c-3.4,2.1-4.8,7-2.6,10.2 l21,25.5c1.6,2,3.4,3.3,5.2,3.6l0,0h0.2c0.4,0.1,6.8,1.2,9.5-3.6l31-55.8C116.8,72.2,115.6,67.7,112.2,65.6z"/></svg>