<svg xmlns="http://www.w3.org/2000/svg" id="consent-icon" width="14" height="14" class="icon" viewBox="-31 0 463 464"><path fill="#b4b4b5" d="m96.5 400v64h272c17.601562 0 32-14.398438 32-32v-32zm0 0"/><path fill="#e9e9e9" d="m328.5 0h-296c17.601562 0 32 14.398438 32 32v400c0 17.601562 14.398438 32 32 32s32-14.398438 32-32v-32h232v-368c0-17.601562-14.398438-32-32-32zm0 0"/><g fill="#c4c4c4"><path d="m272.5 248h64v16h-64zm0 0"/><path d="m88.5 248h168v16h-168zm0 0"/><path d="m176.5 280h160v16h-160zm0 0"/><path d="m88.5 280h72v16h-72zm0 0"/><path d="m232.5 344h104v16h-104zm0 0"/><path d="m88.5 344h128v16h-128zm0 0"/></g><path d="m202.898438 148.800781 5.601562 3.199219 5.601562-3.199219c26.398438-17.601562 42.398438-48 42.398438-80v-20.800781l-48-16-48 16v20.800781c0 32 16 61.597657 42.398438 80zm0 0" class="path fill primary"/><path d="m205.300781 118.398438-8.800781-13.597657c11.199219-8 19.199219-20 20-34.402343l16 1.601562c-1.601562 19.199219-12 36-27.199219 46.398438zm0 0" class="path fill white"/><path fill="#c4c4c4" d="m136.5 312h200v16h-200zm0 0"/><path fill="#c4c4c4" d="m88.5 312h32v16h-32zm0 0"/><path fill="#c4c4c4" d="m176.5 216h160v16h-160zm0 0"/><path fill="#c4c4c4" d="m88.5 216h72v16h-72zm0 0"/><path fill="#c4c4c4" d="m152.5 176h112v16h-112zm0 0"/><path fill="#b4b4b5" d="m32.5 0c17.601562 0 32 14.398438 32 32v56h-64v-56c0-17.601562 14.398438-32 32-32zm0 0"/></svg>