<svg id="padlock-icon" width="14" height="14" class="icon" mlns="http://www.w3.org/2000/svg" viewBox="0 0 51.801 73.132"><g id="lock" transform="translate(-28.594 -12.226)"><path id="upper" d="M54.494,12.226A19.83,19.83,0,0,0,34.688,32.032V44.221a1.523,1.523,0,0,0,1.523,1.523h6.094a1.524,1.524,0,0,0,1.524-1.523V32.032a10.665,10.665,0,1,1,21.33,0V44.221a1.524,1.524,0,0,0,1.523,1.523h6.094A1.524,1.524,0,0,0,74.3,44.221V32.032A19.828,19.828,0,0,0,54.494,12.226Z" class="path fill secondary"/><path id="rounded-rect" d="M36.212,42.7H72.777A7.618,7.618,0,0,1,80.4,50.316V77.74a7.618,7.618,0,0,1-7.618,7.618H36.212a7.618,7.618,0,0,1-7.618-7.618V50.315A7.617,7.617,0,0,1,36.212,42.7Z" class="path fill primary"/><path id="middle" d="M62.112,59.456a7.618,7.618,0,1,0-11,6.8L49.939,74.48a1.53,1.53,0,0,0,1.508,1.737h6.1a1.524,1.524,0,0,0,1.539-1.508,1.615,1.615,0,0,0-.016-.232l-1.177-8.228A7.646,7.646,0,0,0,62.112,59.456Z" class="path fill white"/></g></svg>